<mxfile host="app.diagrams.net" modified="2022-04-06T11:30:20.986Z" agent="5.0 (Macintosh; Intel Mac OS X 10_15_7) AppleWebKit/605.1.15 (KHTML, like Gecko) Version/15.3 Safari/605.1.15" etag="0OB895p3RMg8hFPIGC2e" version="17.4.0" type="github">
  <diagram id="HV5IUnyf38F-UDLMWAZY" name="Page-1">
    <mxGraphModel dx="2893" dy="1055" grid="1" gridSize="10" guides="1" tooltips="1" connect="1" arrows="1" fold="1" page="1" pageScale="1" pageWidth="827" pageHeight="1169" math="1" shadow="0">
      <root>
        <mxCell id="0" />
        <mxCell id="1" parent="0" />
        <mxCell id="5CEC3rfC49lvp4HKldiU-2" value="" style="rounded=0;whiteSpace=wrap;html=1;strokeWidth=2;" parent="1" vertex="1">
          <mxGeometry x="130" y="100" width="520" height="200" as="geometry" />
        </mxCell>
        <mxCell id="5CEC3rfC49lvp4HKldiU-14" value="" style="verticalLabelPosition=bottom;verticalAlign=top;html=1;shape=mxgraph.basic.orthogonal_triangle;strokeWidth=2;fillColor=#cce5ff;gradientDirection=south;strokeColor=#36393d;" parent="1" vertex="1">
          <mxGeometry x="130" y="150" width="390" height="120" as="geometry" />
        </mxCell>
        <mxCell id="5CEC3rfC49lvp4HKldiU-11" value="" style="ellipse;whiteSpace=wrap;html=1;aspect=fixed;strokeWidth=0;gradientDirection=south;" parent="1" vertex="1">
          <mxGeometry x="433" y="247" width="10" height="10" as="geometry" />
        </mxCell>
        <mxCell id="5CEC3rfC49lvp4HKldiU-12" value="" style="ellipse;whiteSpace=wrap;html=1;aspect=fixed;strokeWidth=0;gradientDirection=south;" parent="1" vertex="1">
          <mxGeometry x="453" y="257" width="10" height="10" as="geometry" />
        </mxCell>
        <mxCell id="5CEC3rfC49lvp4HKldiU-15" value="" style="ellipse;whiteSpace=wrap;html=1;aspect=fixed;strokeWidth=0;gradientDirection=south;" parent="1" vertex="1">
          <mxGeometry x="413" y="257" width="10" height="10" as="geometry" />
        </mxCell>
        <mxCell id="5CEC3rfC49lvp4HKldiU-16" value="" style="ellipse;whiteSpace=wrap;html=1;aspect=fixed;strokeWidth=0;gradientDirection=south;" parent="1" vertex="1">
          <mxGeometry x="393" y="247" width="10" height="10" as="geometry" />
        </mxCell>
        <mxCell id="5CEC3rfC49lvp4HKldiU-22" value="" style="ellipse;whiteSpace=wrap;html=1;aspect=fixed;strokeWidth=0;gradientDirection=south;" parent="1" vertex="1">
          <mxGeometry x="373" y="257" width="10" height="10" as="geometry" />
        </mxCell>
        <mxCell id="5CEC3rfC49lvp4HKldiU-23" value="" style="ellipse;whiteSpace=wrap;html=1;aspect=fixed;strokeWidth=0;gradientDirection=south;" parent="1" vertex="1">
          <mxGeometry x="313" y="247" width="10" height="10" as="geometry" />
        </mxCell>
        <mxCell id="5CEC3rfC49lvp4HKldiU-24" value="" style="ellipse;whiteSpace=wrap;html=1;aspect=fixed;strokeWidth=0;gradientDirection=south;" parent="1" vertex="1">
          <mxGeometry x="333" y="257" width="10" height="10" as="geometry" />
        </mxCell>
        <mxCell id="5CEC3rfC49lvp4HKldiU-25" value="" style="ellipse;whiteSpace=wrap;html=1;aspect=fixed;strokeWidth=0;gradientDirection=south;" parent="1" vertex="1">
          <mxGeometry x="353" y="247" width="10" height="10" as="geometry" />
        </mxCell>
        <mxCell id="5CEC3rfC49lvp4HKldiU-26" value="" style="ellipse;whiteSpace=wrap;html=1;aspect=fixed;strokeWidth=0;gradientDirection=south;" parent="1" vertex="1">
          <mxGeometry x="293" y="257" width="10" height="10" as="geometry" />
        </mxCell>
        <mxCell id="5CEC3rfC49lvp4HKldiU-27" value="" style="ellipse;whiteSpace=wrap;html=1;aspect=fixed;strokeWidth=0;gradientDirection=south;" parent="1" vertex="1">
          <mxGeometry x="273" y="247" width="10" height="10" as="geometry" />
        </mxCell>
        <mxCell id="5CEC3rfC49lvp4HKldiU-28" value="" style="ellipse;whiteSpace=wrap;html=1;aspect=fixed;strokeWidth=0;gradientDirection=south;" parent="1" vertex="1">
          <mxGeometry x="253" y="257" width="10" height="10" as="geometry" />
        </mxCell>
        <mxCell id="5CEC3rfC49lvp4HKldiU-29" value="" style="ellipse;whiteSpace=wrap;html=1;aspect=fixed;strokeWidth=0;gradientDirection=south;" parent="1" vertex="1">
          <mxGeometry x="193" y="247" width="10" height="10" as="geometry" />
        </mxCell>
        <mxCell id="5CEC3rfC49lvp4HKldiU-30" value="" style="ellipse;whiteSpace=wrap;html=1;aspect=fixed;strokeWidth=0;gradientDirection=south;" parent="1" vertex="1">
          <mxGeometry x="213" y="257" width="10" height="10" as="geometry" />
        </mxCell>
        <mxCell id="5CEC3rfC49lvp4HKldiU-31" value="" style="ellipse;whiteSpace=wrap;html=1;aspect=fixed;strokeWidth=0;gradientDirection=south;" parent="1" vertex="1">
          <mxGeometry x="233" y="247" width="10" height="10" as="geometry" />
        </mxCell>
        <mxCell id="5CEC3rfC49lvp4HKldiU-32" value="" style="ellipse;whiteSpace=wrap;html=1;aspect=fixed;strokeWidth=0;gradientDirection=south;" parent="1" vertex="1">
          <mxGeometry x="173" y="257" width="10" height="10" as="geometry" />
        </mxCell>
        <mxCell id="5CEC3rfC49lvp4HKldiU-33" value="" style="ellipse;whiteSpace=wrap;html=1;aspect=fixed;strokeWidth=0;gradientDirection=south;" parent="1" vertex="1">
          <mxGeometry x="153" y="247" width="10" height="10" as="geometry" />
        </mxCell>
        <mxCell id="5CEC3rfC49lvp4HKldiU-34" value="" style="ellipse;whiteSpace=wrap;html=1;aspect=fixed;strokeWidth=0;gradientDirection=south;" parent="1" vertex="1">
          <mxGeometry x="133" y="257" width="10" height="10" as="geometry" />
        </mxCell>
        <mxCell id="5CEC3rfC49lvp4HKldiU-113" value="" style="ellipse;whiteSpace=wrap;html=1;aspect=fixed;strokeWidth=0;gradientDirection=south;" parent="1" vertex="1">
          <mxGeometry x="374" y="233" width="10" height="10" as="geometry" />
        </mxCell>
        <mxCell id="5CEC3rfC49lvp4HKldiU-114" value="" style="ellipse;whiteSpace=wrap;html=1;aspect=fixed;strokeWidth=0;gradientDirection=south;" parent="1" vertex="1">
          <mxGeometry x="314" y="223" width="10" height="10" as="geometry" />
        </mxCell>
        <mxCell id="5CEC3rfC49lvp4HKldiU-115" value="" style="ellipse;whiteSpace=wrap;html=1;aspect=fixed;strokeWidth=0;gradientDirection=south;" parent="1" vertex="1">
          <mxGeometry x="334" y="233" width="10" height="10" as="geometry" />
        </mxCell>
        <mxCell id="5CEC3rfC49lvp4HKldiU-116" value="" style="ellipse;whiteSpace=wrap;html=1;aspect=fixed;strokeWidth=0;gradientDirection=south;" parent="1" vertex="1">
          <mxGeometry x="354" y="223" width="10" height="10" as="geometry" />
        </mxCell>
        <mxCell id="5CEC3rfC49lvp4HKldiU-117" value="" style="ellipse;whiteSpace=wrap;html=1;aspect=fixed;strokeWidth=0;gradientDirection=south;" parent="1" vertex="1">
          <mxGeometry x="294" y="233" width="10" height="10" as="geometry" />
        </mxCell>
        <mxCell id="5CEC3rfC49lvp4HKldiU-118" value="" style="ellipse;whiteSpace=wrap;html=1;aspect=fixed;strokeWidth=0;gradientDirection=south;" parent="1" vertex="1">
          <mxGeometry x="274" y="223" width="10" height="10" as="geometry" />
        </mxCell>
        <mxCell id="5CEC3rfC49lvp4HKldiU-119" value="" style="ellipse;whiteSpace=wrap;html=1;aspect=fixed;strokeWidth=0;gradientDirection=south;" parent="1" vertex="1">
          <mxGeometry x="254" y="233" width="10" height="10" as="geometry" />
        </mxCell>
        <mxCell id="5CEC3rfC49lvp4HKldiU-120" value="" style="ellipse;whiteSpace=wrap;html=1;aspect=fixed;strokeWidth=0;gradientDirection=south;" parent="1" vertex="1">
          <mxGeometry x="194" y="223" width="10" height="10" as="geometry" />
        </mxCell>
        <mxCell id="5CEC3rfC49lvp4HKldiU-121" value="" style="ellipse;whiteSpace=wrap;html=1;aspect=fixed;strokeWidth=0;gradientDirection=south;" parent="1" vertex="1">
          <mxGeometry x="214" y="233" width="10" height="10" as="geometry" />
        </mxCell>
        <mxCell id="5CEC3rfC49lvp4HKldiU-122" value="" style="ellipse;whiteSpace=wrap;html=1;aspect=fixed;strokeWidth=0;gradientDirection=south;" parent="1" vertex="1">
          <mxGeometry x="234" y="223" width="10" height="10" as="geometry" />
        </mxCell>
        <mxCell id="5CEC3rfC49lvp4HKldiU-123" value="" style="ellipse;whiteSpace=wrap;html=1;aspect=fixed;strokeWidth=0;gradientDirection=south;" parent="1" vertex="1">
          <mxGeometry x="174" y="233" width="10" height="10" as="geometry" />
        </mxCell>
        <mxCell id="5CEC3rfC49lvp4HKldiU-124" value="" style="ellipse;whiteSpace=wrap;html=1;aspect=fixed;strokeWidth=0;gradientDirection=south;" parent="1" vertex="1">
          <mxGeometry x="154" y="223" width="10" height="10" as="geometry" />
        </mxCell>
        <mxCell id="5CEC3rfC49lvp4HKldiU-125" value="" style="ellipse;whiteSpace=wrap;html=1;aspect=fixed;strokeWidth=0;gradientDirection=south;" parent="1" vertex="1">
          <mxGeometry x="134" y="233" width="10" height="10" as="geometry" />
        </mxCell>
        <mxCell id="5CEC3rfC49lvp4HKldiU-134" value="" style="ellipse;whiteSpace=wrap;html=1;aspect=fixed;strokeWidth=0;gradientDirection=south;" parent="1" vertex="1">
          <mxGeometry x="294" y="210" width="10" height="10" as="geometry" />
        </mxCell>
        <mxCell id="5CEC3rfC49lvp4HKldiU-135" value="" style="ellipse;whiteSpace=wrap;html=1;aspect=fixed;strokeWidth=0;gradientDirection=south;" parent="1" vertex="1">
          <mxGeometry x="274" y="200" width="10" height="10" as="geometry" />
        </mxCell>
        <mxCell id="5CEC3rfC49lvp4HKldiU-136" value="" style="ellipse;whiteSpace=wrap;html=1;aspect=fixed;strokeWidth=0;gradientDirection=south;" parent="1" vertex="1">
          <mxGeometry x="254" y="210" width="10" height="10" as="geometry" />
        </mxCell>
        <mxCell id="5CEC3rfC49lvp4HKldiU-137" value="" style="ellipse;whiteSpace=wrap;html=1;aspect=fixed;strokeWidth=0;gradientDirection=south;" parent="1" vertex="1">
          <mxGeometry x="194" y="200" width="10" height="10" as="geometry" />
        </mxCell>
        <mxCell id="5CEC3rfC49lvp4HKldiU-138" value="" style="ellipse;whiteSpace=wrap;html=1;aspect=fixed;strokeWidth=0;gradientDirection=south;" parent="1" vertex="1">
          <mxGeometry x="214" y="210" width="10" height="10" as="geometry" />
        </mxCell>
        <mxCell id="5CEC3rfC49lvp4HKldiU-139" value="" style="ellipse;whiteSpace=wrap;html=1;aspect=fixed;strokeWidth=0;gradientDirection=south;" parent="1" vertex="1">
          <mxGeometry x="234" y="200" width="10" height="10" as="geometry" />
        </mxCell>
        <mxCell id="5CEC3rfC49lvp4HKldiU-140" value="" style="ellipse;whiteSpace=wrap;html=1;aspect=fixed;strokeWidth=0;gradientDirection=south;" parent="1" vertex="1">
          <mxGeometry x="174" y="210" width="10" height="10" as="geometry" />
        </mxCell>
        <mxCell id="5CEC3rfC49lvp4HKldiU-141" value="" style="ellipse;whiteSpace=wrap;html=1;aspect=fixed;strokeWidth=0;gradientDirection=south;" parent="1" vertex="1">
          <mxGeometry x="154" y="200" width="10" height="10" as="geometry" />
        </mxCell>
        <mxCell id="5CEC3rfC49lvp4HKldiU-142" value="" style="ellipse;whiteSpace=wrap;html=1;aspect=fixed;strokeWidth=0;gradientDirection=south;" parent="1" vertex="1">
          <mxGeometry x="134" y="210" width="10" height="10" as="geometry" />
        </mxCell>
        <mxCell id="5CEC3rfC49lvp4HKldiU-154" value="" style="ellipse;whiteSpace=wrap;html=1;aspect=fixed;strokeWidth=0;gradientDirection=south;" parent="1" vertex="1">
          <mxGeometry x="194" y="175" width="10" height="10" as="geometry" />
        </mxCell>
        <mxCell id="5CEC3rfC49lvp4HKldiU-155" value="" style="ellipse;whiteSpace=wrap;html=1;aspect=fixed;strokeWidth=0;gradientDirection=south;" parent="1" vertex="1">
          <mxGeometry x="214" y="185" width="10" height="10" as="geometry" />
        </mxCell>
        <mxCell id="5CEC3rfC49lvp4HKldiU-157" value="" style="ellipse;whiteSpace=wrap;html=1;aspect=fixed;strokeWidth=0;gradientDirection=south;" parent="1" vertex="1">
          <mxGeometry x="174" y="185" width="10" height="10" as="geometry" />
        </mxCell>
        <mxCell id="5CEC3rfC49lvp4HKldiU-158" value="" style="ellipse;whiteSpace=wrap;html=1;aspect=fixed;strokeWidth=0;gradientDirection=south;" parent="1" vertex="1">
          <mxGeometry x="154" y="175" width="10" height="10" as="geometry" />
        </mxCell>
        <mxCell id="5CEC3rfC49lvp4HKldiU-159" value="" style="ellipse;whiteSpace=wrap;html=1;aspect=fixed;strokeWidth=0;gradientDirection=south;" parent="1" vertex="1">
          <mxGeometry x="134" y="185" width="10" height="10" as="geometry" />
        </mxCell>
        <mxCell id="5CEC3rfC49lvp4HKldiU-177" value="" style="rounded=0;whiteSpace=wrap;html=1;fillColor=#CCCCCC;strokeColor=#000000;gradientDirection=south;strokeWidth=2;" parent="1" vertex="1">
          <mxGeometry x="130" y="100" width="520" height="30" as="geometry" />
        </mxCell>
        <mxCell id="5CEC3rfC49lvp4HKldiU-176" value="" style="ellipse;whiteSpace=wrap;html=1;aspect=fixed;strokeWidth=0;gradientDirection=south;" parent="1" vertex="1">
          <mxGeometry x="134" y="160" width="10" height="10" as="geometry" />
        </mxCell>
        <mxCell id="5CEC3rfC49lvp4HKldiU-181" value="&lt;div style=&quot;font-size: 16px&quot;&gt;&lt;font style=&quot;font-size: 16px&quot;&gt;$$\dot{m}_{in} $$&lt;/font&gt;&lt;/div&gt;&lt;div style=&quot;font-size: 16px&quot;&gt;&lt;div&gt;&lt;font style=&quot;font-size: 16px&quot;&gt;$$h_{in} $$&lt;/font&gt;&lt;/div&gt;&lt;/div&gt;" style="text;html=1;align=center;verticalAlign=middle;resizable=0;points=[];autosize=1;strokeColor=none;fillColor=none;fontSize=14;fontFamily=Helvetica;" parent="1" vertex="1">
          <mxGeometry x="-6" y="187" width="140" height="40" as="geometry" />
        </mxCell>
        <mxCell id="5CEC3rfC49lvp4HKldiU-183" value="" style="endArrow=classic;html=1;rounded=0;fontFamily=Helvetica;fontSize=14;" parent="1" edge="1">
          <mxGeometry width="50" height="50" relative="1" as="geometry">
            <mxPoint x="84" y="189.58" as="sourcePoint" />
            <mxPoint x="114" y="189.58" as="targetPoint" />
          </mxGeometry>
        </mxCell>
        <mxCell id="5CEC3rfC49lvp4HKldiU-186" value="" style="endArrow=classic;html=1;rounded=0;fontFamily=Helvetica;fontSize=14;" parent="1" edge="1">
          <mxGeometry width="50" height="50" relative="1" as="geometry">
            <mxPoint x="84" y="225.83000000000004" as="sourcePoint" />
            <mxPoint x="114.00000000000023" y="225.83000000000004" as="targetPoint" />
          </mxGeometry>
        </mxCell>
        <mxCell id="5CEC3rfC49lvp4HKldiU-6" value="" style="endArrow=none;dashed=1;html=1;dashPattern=1 3;strokeWidth=2;rounded=0;exitX=0.75;exitY=1;exitDx=0;exitDy=0;" parent="1" source="5CEC3rfC49lvp4HKldiU-4" edge="1">
          <mxGeometry width="50" height="50" relative="1" as="geometry">
            <mxPoint x="640" y="400" as="sourcePoint" />
            <mxPoint x="520" y="30" as="targetPoint" />
          </mxGeometry>
        </mxCell>
        <mxCell id="5CEC3rfC49lvp4HKldiU-188" value="" style="endArrow=baseDash;startArrow=baseDash;html=1;rounded=0;fontFamily=Helvetica;fontSize=12;strokeWidth=1;startFill=0;endFill=0;" parent="1" edge="1">
          <mxGeometry width="50" height="50" relative="1" as="geometry">
            <mxPoint x="130" y="316" as="sourcePoint" />
            <mxPoint x="520" y="316" as="targetPoint" />
          </mxGeometry>
        </mxCell>
        <mxCell id="5CEC3rfC49lvp4HKldiU-189" value="&lt;div style=&quot;font-size: 16px;&quot;&gt;$$\sigma$$&lt;/div&gt;" style="edgeLabel;html=1;align=center;verticalAlign=middle;resizable=0;points=[];fontSize=16;fontFamily=Helvetica;" parent="5CEC3rfC49lvp4HKldiU-188" vertex="1" connectable="0">
          <mxGeometry x="-0.1402" y="-4" relative="1" as="geometry">
            <mxPoint x="28" y="-4" as="offset" />
          </mxGeometry>
        </mxCell>
        <mxCell id="5CEC3rfC49lvp4HKldiU-190" value="Liquid-vapor CV" style="text;html=1;align=center;verticalAlign=middle;resizable=0;points=[];autosize=1;strokeColor=none;fillColor=none;fontSize=16;fontFamily=Helvetica;" parent="1" vertex="1">
          <mxGeometry x="264" y="367" width="130" height="20" as="geometry" />
        </mxCell>
        <mxCell id="5CEC3rfC49lvp4HKldiU-191" value="" style="endArrow=classic;html=1;rounded=0;fontFamily=Helvetica;fontSize=14;" parent="1" edge="1">
          <mxGeometry width="50" height="50" relative="1" as="geometry">
            <mxPoint x="120" y="199.58000000000004" as="sourcePoint" />
            <mxPoint x="120.00000000000023" y="199.58000000000004" as="targetPoint" />
          </mxGeometry>
        </mxCell>
        <mxCell id="5CEC3rfC49lvp4HKldiU-192" value="Vapor CV" style="text;whiteSpace=wrap;html=1;fontSize=16;fontFamily=Helvetica;" parent="1" vertex="1">
          <mxGeometry x="550" y="361" width="140" height="30" as="geometry" />
        </mxCell>
        <mxCell id="5CEC3rfC49lvp4HKldiU-195" value="" style="shape=curlyBracket;whiteSpace=wrap;html=1;rounded=1;fontFamily=Helvetica;fontSize=16;strokeColor=#000000;strokeWidth=1;fillColor=#000000;gradientColor=none;gradientDirection=south;direction=north;size=0.5;" parent="1" vertex="1">
          <mxGeometry x="521" y="340" width="129" height="20" as="geometry" />
        </mxCell>
        <mxCell id="5CEC3rfC49lvp4HKldiU-205" value="&lt;div style=&quot;font-size: 16px&quot;&gt;&lt;font style=&quot;font-size: 16px&quot;&gt;$$\dot{m}_{out} $$&lt;/font&gt;&lt;/div&gt;&lt;div style=&quot;font-size: 16px&quot;&gt;&lt;div&gt;&lt;font style=&quot;font-size: 16px&quot;&gt;$$h_{out} $$&lt;/font&gt;&lt;/div&gt;&lt;div&gt;&lt;font style=&quot;font-size: 16px&quot;&gt;&lt;br&gt;&lt;/font&gt;&lt;br&gt;&lt;/div&gt;&lt;/div&gt;" style="text;html=1;align=center;verticalAlign=middle;resizable=0;points=[];autosize=1;strokeColor=none;fillColor=none;fontSize=14;fontFamily=Helvetica;" parent="1" vertex="1">
          <mxGeometry x="603" y="180" width="150" height="70" as="geometry" />
        </mxCell>
        <mxCell id="5CEC3rfC49lvp4HKldiU-207" value="$$T_{ml}$$" style="text;html=1;align=center;verticalAlign=middle;resizable=0;points=[];autosize=1;fontSize=16;fontFamily=Helvetica;fontColor=#000000;" parent="1" vertex="1">
          <mxGeometry x="283" y="105" width="100" height="20" as="geometry" />
        </mxCell>
        <mxCell id="5CEC3rfC49lvp4HKldiU-209" value="&lt;div&gt;$$T_{mv}$$&lt;/div&gt;" style="text;html=1;align=center;verticalAlign=middle;resizable=0;points=[];autosize=1;fontSize=16;fontFamily=Helvetica;fontColor=#000000;" parent="1" vertex="1">
          <mxGeometry x="570" y="105" width="100" height="20" as="geometry" />
        </mxCell>
        <mxCell id="5CEC3rfC49lvp4HKldiU-211" value="$$Q_{mvml} $$ " style="text;html=1;align=center;verticalAlign=middle;resizable=0;points=[];autosize=1;strokeColor=none;fillColor=none;fontSize=16;fontFamily=Helvetica;fontColor=#000000;" parent="1" vertex="1">
          <mxGeometry x="488" y="105" width="130" height="20" as="geometry" />
        </mxCell>
        <mxCell id="5CEC3rfC49lvp4HKldiU-212" value="" style="endArrow=classic;html=1;rounded=0;fontFamily=Helvetica;fontSize=14;" parent="1" edge="1">
          <mxGeometry width="50" height="50" relative="1" as="geometry">
            <mxPoint x="526.0000000000002" y="117.66000000000008" as="sourcePoint" />
            <mxPoint x="496" y="117.66000000000008" as="targetPoint" />
          </mxGeometry>
        </mxCell>
        <mxCell id="5CEC3rfC49lvp4HKldiU-213" value="&lt;div&gt;$$T_{retfan}$$&lt;/div&gt;" style="text;html=1;align=center;verticalAlign=middle;resizable=0;points=[];autosize=1;fontSize=16;fontFamily=Helvetica;fontColor=#000000;" parent="1" vertex="1">
          <mxGeometry x="525.5" y="30" width="120" height="20" as="geometry" />
        </mxCell>
        <mxCell id="5CEC3rfC49lvp4HKldiU-217" value="&lt;div&gt;$$T_{retsh}$$&lt;/div&gt;" style="text;html=1;align=center;verticalAlign=middle;resizable=0;points=[];autosize=1;fontSize=16;fontFamily=Helvetica;fontColor=#000000;" parent="1" vertex="1">
          <mxGeometry x="264.5" y="30" width="120" height="20" as="geometry" />
        </mxCell>
        <mxCell id="5CEC3rfC49lvp4HKldiU-219" value="$$Q_{amv} $$ " style="text;html=1;align=center;verticalAlign=middle;resizable=0;points=[];autosize=1;strokeColor=none;fillColor=none;fontSize=16;fontFamily=Helvetica;fontColor=#000000;" parent="1" vertex="1">
          <mxGeometry x="510" y="66" width="120" height="20" as="geometry" />
        </mxCell>
        <mxCell id="5CEC3rfC49lvp4HKldiU-223" value="" style="endArrow=classic;html=1;rounded=0;fontFamily=Helvetica;fontSize=14;exitX=0.508;exitY=1.142;exitDx=0;exitDy=0;exitPerimeter=0;" parent="1" edge="1">
          <mxGeometry width="50" height="50" relative="1" as="geometry">
            <mxPoint x="594.96" y="72.83999999999992" as="sourcePoint" />
            <mxPoint x="595" y="100" as="targetPoint" />
          </mxGeometry>
        </mxCell>
        <mxCell id="5CEC3rfC49lvp4HKldiU-229" value="$$Q_{mv} $$ " style="text;html=1;align=center;verticalAlign=middle;resizable=0;points=[];autosize=1;strokeColor=none;fillColor=none;fontSize=16;fontFamily=Helvetica;fontColor=#000000;" parent="1" vertex="1">
          <mxGeometry x="518" y="134" width="110" height="20" as="geometry" />
        </mxCell>
        <mxCell id="5CEC3rfC49lvp4HKldiU-230" value="" style="endArrow=classic;html=1;rounded=0;fontFamily=Helvetica;fontSize=14;exitX=0.508;exitY=1.142;exitDx=0;exitDy=0;exitPerimeter=0;" parent="1" edge="1">
          <mxGeometry width="50" height="50" relative="1" as="geometry">
            <mxPoint x="594.96" y="129.83999999999992" as="sourcePoint" />
            <mxPoint x="595" y="157" as="targetPoint" />
          </mxGeometry>
        </mxCell>
        <mxCell id="5CEC3rfC49lvp4HKldiU-231" value="$$Q_{aml} $$ " style="text;html=1;align=center;verticalAlign=middle;resizable=0;points=[];autosize=1;strokeColor=none;fillColor=none;fontSize=16;fontFamily=Helvetica;fontColor=#000000;" parent="1" vertex="1">
          <mxGeometry x="253" y="66" width="110" height="20" as="geometry" />
        </mxCell>
        <mxCell id="5CEC3rfC49lvp4HKldiU-232" value="" style="endArrow=classic;html=1;rounded=0;fontFamily=Helvetica;fontSize=14;exitX=0.508;exitY=1.142;exitDx=0;exitDy=0;exitPerimeter=0;" parent="1" edge="1">
          <mxGeometry width="50" height="50" relative="1" as="geometry">
            <mxPoint x="331.96000000000004" y="73.83999999999992" as="sourcePoint" />
            <mxPoint x="332" y="101" as="targetPoint" />
          </mxGeometry>
        </mxCell>
        <mxCell id="5CEC3rfC49lvp4HKldiU-233" value="$$Q_{ml} $$ " style="text;html=1;align=center;verticalAlign=middle;resizable=0;points=[];autosize=1;strokeColor=none;fillColor=none;fontSize=16;fontFamily=Helvetica;fontColor=#000000;" parent="1" vertex="1">
          <mxGeometry x="260" y="135" width="100" height="20" as="geometry" />
        </mxCell>
        <mxCell id="5CEC3rfC49lvp4HKldiU-234" value="" style="endArrow=classic;html=1;rounded=0;fontFamily=Helvetica;fontSize=14;exitX=0.508;exitY=1.142;exitDx=0;exitDy=0;exitPerimeter=0;" parent="1" edge="1">
          <mxGeometry width="50" height="50" relative="1" as="geometry">
            <mxPoint x="331.96000000000004" y="130.8399999999998" as="sourcePoint" />
            <mxPoint x="332" y="158" as="targetPoint" />
          </mxGeometry>
        </mxCell>
        <mxCell id="5CEC3rfC49lvp4HKldiU-237" value="&lt;div style=&quot;font-size: 16px&quot;&gt;&lt;font style=&quot;font-size: 16px&quot;&gt;$$\dot{m}_{bub} $$&lt;/font&gt;&lt;/div&gt;&lt;div style=&quot;font-size: 16px&quot;&gt;&lt;div&gt;&lt;font style=&quot;font-size: 16px&quot;&gt;$$h_{bub} $$&lt;/font&gt;&lt;/div&gt;&lt;div&gt;&lt;font style=&quot;font-size: 16px&quot;&gt;&lt;br&gt;&lt;/font&gt;&lt;br&gt;&lt;/div&gt;&lt;/div&gt;" style="text;html=1;align=center;verticalAlign=middle;resizable=0;points=[];autosize=1;strokeColor=none;fillColor=none;fontSize=14;fontFamily=Helvetica;" parent="1" vertex="1">
          <mxGeometry x="421" y="180" width="150" height="70" as="geometry" />
        </mxCell>
        <mxCell id="5CEC3rfC49lvp4HKldiU-238" value="&lt;div&gt;$$M_{lv}$$&lt;/div&gt;&lt;div&gt;$$h_{lv}$$&lt;/div&gt;&lt;div&gt;$$T_{lv}$$&lt;/div&gt;" style="text;html=1;align=center;verticalAlign=middle;resizable=0;points=[];autosize=1;fontSize=16;fontFamily=Helvetica;fontColor=#000000;" parent="1" vertex="1">
          <mxGeometry x="370" y="155" width="100" height="60" as="geometry" />
        </mxCell>
        <mxCell id="5CEC3rfC49lvp4HKldiU-239" value="&lt;div&gt;$$M_{v}$$&lt;/div&gt;&lt;div&gt;$$h_{v}$$&lt;/div&gt;&lt;div&gt;$$T_{v}$$&lt;/div&gt;" style="text;html=1;align=center;verticalAlign=middle;resizable=0;points=[];autosize=1;fontSize=16;fontFamily=Helvetica;fontColor=#000000;" parent="1" vertex="1">
          <mxGeometry x="576" y="154" width="90" height="60" as="geometry" />
        </mxCell>
        <mxCell id="5CEC3rfC49lvp4HKldiU-240" value="" style="rounded=0;whiteSpace=wrap;html=1;fillColor=#CCE5FF;strokeColor=#000000;gradientDirection=south;strokeWidth=2;" parent="1" vertex="1">
          <mxGeometry x="841" y="260" width="31" height="30" as="geometry" />
        </mxCell>
        <mxCell id="5CEC3rfC49lvp4HKldiU-242" value="" style="rounded=0;whiteSpace=wrap;html=1;fillColor=#FFFFFF;strokeColor=#000000;gradientDirection=south;strokeWidth=2;" parent="1" vertex="1">
          <mxGeometry x="841" y="210" width="31" height="30" as="geometry" />
        </mxCell>
        <mxCell id="5CEC3rfC49lvp4HKldiU-244" value="Vapor" style="text;whiteSpace=wrap;html=1;fontSize=16;fontFamily=Helvetica;" parent="1" vertex="1">
          <mxGeometry x="781" y="210" width="49" height="30" as="geometry" />
        </mxCell>
        <mxCell id="5CEC3rfC49lvp4HKldiU-245" value="Liquid" style="text;whiteSpace=wrap;html=1;fontSize=16;fontFamily=Helvetica;" parent="1" vertex="1">
          <mxGeometry x="780" y="260" width="50" height="30" as="geometry" />
        </mxCell>
        <mxCell id="5CEC3rfC49lvp4HKldiU-4" value="" style="rounded=0;whiteSpace=wrap;html=1;fillColor=#CCCCCC;strokeColor=#000000;gradientDirection=south;strokeWidth=2;" parent="1" vertex="1">
          <mxGeometry x="130" y="270" width="520" height="30" as="geometry" />
        </mxCell>
        <mxCell id="5CEC3rfC49lvp4HKldiU-194" value="" style="shape=curlyBracket;whiteSpace=wrap;html=1;rounded=1;fontFamily=Helvetica;fontSize=16;strokeColor=#000000;strokeWidth=1;fillColor=#000000;gradientColor=none;gradientDirection=south;direction=north;size=0.5;" parent="1" vertex="1">
          <mxGeometry x="130" y="340" width="389" height="20" as="geometry" />
        </mxCell>
        <mxCell id="YIZ8vSinqz5e-7mkU95c-2" value="" style="group" parent="1" vertex="1" connectable="0">
          <mxGeometry x="518.0000000000002" y="182.66000000000008" width="30" height="34" as="geometry" />
        </mxCell>
        <mxCell id="5CEC3rfC49lvp4HKldiU-235" value="" style="endArrow=classic;html=1;rounded=0;fontFamily=Helvetica;fontSize=14;" parent="YIZ8vSinqz5e-7mkU95c-2" edge="1">
          <mxGeometry width="50" height="50" relative="1" as="geometry">
            <mxPoint as="sourcePoint" />
            <mxPoint x="30" as="targetPoint" />
          </mxGeometry>
        </mxCell>
        <mxCell id="5CEC3rfC49lvp4HKldiU-236" value="" style="endArrow=classic;html=1;rounded=0;fontFamily=Helvetica;fontSize=14;" parent="YIZ8vSinqz5e-7mkU95c-2" edge="1">
          <mxGeometry width="50" height="50" relative="1" as="geometry">
            <mxPoint y="34" as="sourcePoint" />
            <mxPoint x="30" y="34" as="targetPoint" />
          </mxGeometry>
        </mxCell>
        <mxCell id="YIZ8vSinqz5e-7mkU95c-3" value="" style="group" parent="1" vertex="1" connectable="0">
          <mxGeometry x="703.0000000000002" y="182.00000000000009" width="30" height="34" as="geometry" />
        </mxCell>
        <mxCell id="YIZ8vSinqz5e-7mkU95c-4" value="" style="endArrow=classic;html=1;rounded=0;fontFamily=Helvetica;fontSize=14;" parent="YIZ8vSinqz5e-7mkU95c-3" edge="1">
          <mxGeometry width="50" height="50" relative="1" as="geometry">
            <mxPoint as="sourcePoint" />
            <mxPoint x="30" as="targetPoint" />
          </mxGeometry>
        </mxCell>
        <mxCell id="YIZ8vSinqz5e-7mkU95c-5" value="" style="endArrow=classic;html=1;rounded=0;fontFamily=Helvetica;fontSize=14;" parent="YIZ8vSinqz5e-7mkU95c-3" edge="1">
          <mxGeometry width="50" height="50" relative="1" as="geometry">
            <mxPoint y="34" as="sourcePoint" />
            <mxPoint x="30" y="34" as="targetPoint" />
          </mxGeometry>
        </mxCell>
        <mxCell id="YIZ8vSinqz5e-7mkU95c-8" value="" style="endArrow=none;dashed=1;html=1;dashPattern=1 3;strokeWidth=2;rounded=0;entryX=0;entryY=0;entryDx=0;entryDy=0;" parent="1" target="5CEC3rfC49lvp4HKldiU-177" edge="1">
          <mxGeometry width="50" height="50" relative="1" as="geometry">
            <mxPoint x="130" y="34" as="sourcePoint" />
            <mxPoint x="110" y="100" as="targetPoint" />
          </mxGeometry>
        </mxCell>
        <mxCell id="YIZ8vSinqz5e-7mkU95c-9" value="" style="endArrow=none;dashed=1;html=1;dashPattern=1 3;strokeWidth=2;rounded=0;entryX=0;entryY=0;entryDx=0;entryDy=0;" parent="1" edge="1">
          <mxGeometry width="50" height="50" relative="1" as="geometry">
            <mxPoint x="650" y="34" as="sourcePoint" />
            <mxPoint x="650" y="100" as="targetPoint" />
          </mxGeometry>
        </mxCell>
        <mxCell id="YIZ8vSinqz5e-7mkU95c-10" value="&lt;div&gt;$$T_{sup}$$&lt;/div&gt;" style="text;html=1;align=center;verticalAlign=middle;resizable=0;points=[];autosize=1;fontSize=16;fontFamily=Helvetica;fontColor=#000000;" parent="1" vertex="1">
          <mxGeometry x="13" y="30" width="110" height="20" as="geometry" />
        </mxCell>
        <mxCell id="YIZ8vSinqz5e-7mkU95c-11" value="&lt;div&gt;$$T_{ret}$$&lt;/div&gt;" style="text;html=1;align=center;verticalAlign=middle;resizable=0;points=[];autosize=1;fontSize=16;fontFamily=Helvetica;fontColor=#000000;" parent="1" vertex="1">
          <mxGeometry x="850" y="30" width="100" height="20" as="geometry" />
        </mxCell>
        <mxCell id="YIZ8vSinqz5e-7mkU95c-12" value="" style="group" parent="1" vertex="1" connectable="0">
          <mxGeometry x="630" y="54.927281105990794" width="279" height="105.06912442396316" as="geometry" />
        </mxCell>
        <mxCell id="5CEC3rfC49lvp4HKldiU-214" value="" style="endArrow=classic;html=1;rounded=0;fontFamily=Helvetica;fontSize=14;" parent="YIZ8vSinqz5e-7mkU95c-12" edge="1">
          <mxGeometry width="50" height="50" relative="1" as="geometry">
            <mxPoint x="92" y="37.73271889400921" as="sourcePoint" />
            <mxPoint x="42" y="37.73271889400921" as="targetPoint" />
          </mxGeometry>
        </mxCell>
        <mxCell id="5CEC3rfC49lvp4HKldiU-216" value="&lt;div&gt;&lt;font style=&quot;font-size: 16px&quot;&gt;$$\dot{m}_{air} $$&lt;/font&gt;&lt;/div&gt;" style="text;html=1;align=center;verticalAlign=middle;resizable=0;points=[];autosize=1;strokeColor=none;fillColor=none;fontSize=14;fontFamily=Helvetica;" parent="YIZ8vSinqz5e-7mkU95c-12" vertex="1">
          <mxGeometry y="11.73271889400921" width="140" height="20" as="geometry" />
        </mxCell>
        <mxCell id="5CEC3rfC49lvp4HKldiU-270" value="" style="group" parent="YIZ8vSinqz5e-7mkU95c-12" vertex="1" connectable="0">
          <mxGeometry x="109" width="170" height="105.06912442396315" as="geometry" />
        </mxCell>
        <mxCell id="5CEC3rfC49lvp4HKldiU-247" value="" style="whiteSpace=wrap;html=1;shape=mxgraph.basic.pointed_oval;" parent="5CEC3rfC49lvp4HKldiU-270" vertex="1">
          <mxGeometry x="30.952380952380956" width="24.761904761904756" height="52.53456221198157" as="geometry" />
        </mxCell>
        <mxCell id="5CEC3rfC49lvp4HKldiU-248" value="" style="whiteSpace=wrap;html=1;shape=mxgraph.basic.pointed_oval;" parent="5CEC3rfC49lvp4HKldiU-270" vertex="1">
          <mxGeometry x="30.952380952380956" y="52.53456221198157" width="24.761904761904756" height="52.53456221198157" as="geometry" />
        </mxCell>
        <mxCell id="5CEC3rfC49lvp4HKldiU-249" value="" style="endArrow=none;html=1;rounded=0;entryX=0.5;entryY=0;entryDx=0;entryDy=0;entryPerimeter=0;" parent="5CEC3rfC49lvp4HKldiU-270" target="5CEC3rfC49lvp4HKldiU-248" edge="1">
          <mxGeometry width="50" height="50" relative="1" as="geometry">
            <mxPoint x="80.47619047619047" y="52.53456221198157" as="sourcePoint" />
            <mxPoint x="27.23809523809524" y="49.03225806451614" as="targetPoint" />
          </mxGeometry>
        </mxCell>
        <mxCell id="5CEC3rfC49lvp4HKldiU-250" value="" style="rounded=0;whiteSpace=wrap;html=1;" parent="5CEC3rfC49lvp4HKldiU-270" vertex="1">
          <mxGeometry x="80.47619047619047" y="35.02304147465439" width="49.52380952380951" height="35.02304147465439" as="geometry" />
        </mxCell>
        <mxCell id="5CEC3rfC49lvp4HKldiU-252" value="" style="curved=1;endArrow=none;html=1;rounded=0;anchorPointDirection=1;endFill=0;" parent="5CEC3rfC49lvp4HKldiU-270" edge="1">
          <mxGeometry width="50" height="50" relative="1" as="geometry">
            <mxPoint x="-12.380952380952378" y="13.133640552995393" as="sourcePoint" />
            <mxPoint x="18.571428571428573" y="13.133640552995393" as="targetPoint" />
            <Array as="points">
              <mxPoint y="17.511520737327196" />
              <mxPoint x="8.666666666666666" y="8.755760368663598" />
            </Array>
          </mxGeometry>
        </mxCell>
        <mxCell id="5CEC3rfC49lvp4HKldiU-253" value="" style="curved=1;endArrow=none;html=1;rounded=0;anchorPointDirection=1;endFill=0;" parent="5CEC3rfC49lvp4HKldiU-270" edge="1">
          <mxGeometry width="50" height="50" relative="1" as="geometry">
            <mxPoint x="-12.380952380952378" y="26.267281105990786" as="sourcePoint" />
            <mxPoint x="18.571428571428573" y="26.267281105990786" as="targetPoint" />
            <Array as="points">
              <mxPoint y="30.645161290322587" />
              <mxPoint x="8.666666666666666" y="21.88940092165899" />
            </Array>
          </mxGeometry>
        </mxCell>
        <mxCell id="5CEC3rfC49lvp4HKldiU-254" value="" style="curved=1;endArrow=none;html=1;rounded=0;anchorPointDirection=1;endFill=0;" parent="5CEC3rfC49lvp4HKldiU-270" edge="1">
          <mxGeometry width="50" height="50" relative="1" as="geometry">
            <mxPoint x="-12.380952380952378" y="39.400921658986185" as="sourcePoint" />
            <mxPoint x="18.571428571428573" y="39.400921658986185" as="targetPoint" />
            <Array as="points">
              <mxPoint y="43.77880184331798" />
              <mxPoint x="8.666666666666666" y="35.02304147465439" />
            </Array>
          </mxGeometry>
        </mxCell>
        <mxCell id="5CEC3rfC49lvp4HKldiU-255" value="" style="curved=1;endArrow=none;html=1;rounded=0;anchorPointDirection=1;endFill=0;" parent="5CEC3rfC49lvp4HKldiU-270" edge="1">
          <mxGeometry width="50" height="50" relative="1" as="geometry">
            <mxPoint x="-12.380952380952378" y="52.53456221198157" as="sourcePoint" />
            <mxPoint x="18.571428571428573" y="52.53456221198157" as="targetPoint" />
            <Array as="points">
              <mxPoint y="56.91244239631338" />
              <mxPoint x="8.666666666666666" y="48.15668202764979" />
            </Array>
          </mxGeometry>
        </mxCell>
        <mxCell id="5CEC3rfC49lvp4HKldiU-256" value="" style="curved=1;endArrow=none;html=1;rounded=0;anchorPointDirection=1;endFill=0;" parent="5CEC3rfC49lvp4HKldiU-270" edge="1">
          <mxGeometry width="50" height="50" relative="1" as="geometry">
            <mxPoint x="-12.380952380952378" y="65.66820276497698" as="sourcePoint" />
            <mxPoint x="18.571428571428573" y="65.66820276497698" as="targetPoint" />
            <Array as="points">
              <mxPoint y="70.04608294930878" />
              <mxPoint x="8.666666666666666" y="61.290322580645174" />
            </Array>
          </mxGeometry>
        </mxCell>
        <mxCell id="5CEC3rfC49lvp4HKldiU-257" value="" style="curved=1;endArrow=none;html=1;rounded=0;anchorPointDirection=1;endFill=0;" parent="5CEC3rfC49lvp4HKldiU-270" edge="1">
          <mxGeometry width="50" height="50" relative="1" as="geometry">
            <mxPoint x="-12.380952380952378" y="78.80184331797237" as="sourcePoint" />
            <mxPoint x="18.571428571428573" y="78.80184331797237" as="targetPoint" />
            <Array as="points">
              <mxPoint y="83.17972350230417" />
              <mxPoint x="8.666666666666666" y="74.42396313364058" />
            </Array>
          </mxGeometry>
        </mxCell>
        <mxCell id="5CEC3rfC49lvp4HKldiU-251" value="&lt;font style=&quot;font-size: 16px&quot;&gt;Evaporator fan&lt;/font&gt;" style="text;html=1;strokeColor=none;fillColor=none;align=center;verticalAlign=middle;whiteSpace=wrap;rounded=0;" parent="5CEC3rfC49lvp4HKldiU-270" vertex="1">
          <mxGeometry x="54.71" y="73.53999999999999" width="124" height="27.53" as="geometry" />
        </mxCell>
        <mxCell id="YIZ8vSinqz5e-7mkU95c-13" value="" style="endArrow=none;dashed=1;html=1;dashPattern=1 3;strokeWidth=2;rounded=0;entryX=0;entryY=0;entryDx=0;entryDy=0;" parent="5CEC3rfC49lvp4HKldiU-270" edge="1">
          <mxGeometry width="50" height="50" relative="1" as="geometry">
            <mxPoint x="130" y="-19.927281105990794" as="sourcePoint" />
            <mxPoint x="130" y="35.02271889400921" as="targetPoint" />
          </mxGeometry>
        </mxCell>
      </root>
    </mxGraphModel>
  </diagram>
</mxfile>
